<?xml version="1.0" standalone="no"?>
<!DOCTYPE svg PUBLIC "-//W3C//DTD SVG 20010904//EN"
 "http://www.w3.org/TR/2001/REC-SVG-20010904/DTD/svg10.dtd">
<svg version="1.0" xmlns="http://www.w3.org/2000/svg"
 width="1200.000000pt" height="974.000000pt" viewBox="0 0 1200.000000 974.000000"
 preserveAspectRatio="xMidYMid meet">
<metadata>
Created by potrace 1.15, written by Peter Selinger 2001-2017
</metadata>
<g transform="translate(0.000000,974.000000) scale(0.100000,-0.100000)"
fill="#000000" stroke="none">
<path d="M4760 8354 c-1090 -153 -2565 -1172 -3638 -2512 -598 -748 -965
-1485 -1089 -2191 -34 -195 -43 -553 -19 -737 96 -732 550 -1384 1321 -1899
1236 -825 3086 -1177 4855 -925 1384 198 2619 769 3439 1591 438 440 727 933
821 1404 28 136 38 400 21 528 -46 341 -197 635 -458 888 -246 239 -546 413
-948 549 -97 33 -189 69 -206 80 -34 25 -59 68 -59 105 0 14 29 112 64 218 96
284 110 361 110 592 0 179 -1 195 -27 280 -104 336 -364 541 -788 622 -119 22
-561 25 -709 5 -345 -49 -730 -150 -1075 -282 -292 -112 -320 -122 -372 -130
-74 -12 -120 2 -140 46 -16 33 -16 38 25 186 120 447 131 780 31 1051 -96 266
-291 436 -584 513 -87 23 -125 27 -285 30 -127 2 -218 -1 -290 -12z m665
-2884 c1454 -90 2589 -740 2909 -1668 62 -179 81 -299 81 -517 -1 -203 -11
-282 -62 -460 -197 -687 -868 -1334 -1782 -1719 -489 -206 -971 -325 -1571
-388 -166 -17 -833 -17 -990 0 -576 64 -1039 188 -1469 393 -1169 559 -1628
1571 -1153 2539 250 509 746 968 1402 1296 203 101 336 158 533 228 653 232
1411 339 2102 296z"/>
<path d="M4525 4503 c-98 -9 -300 -48 -405 -78 -591 -170 -1072 -558 -1310
-1057 -210 -441 -208 -904 7 -1319 273 -528 876 -858 1570 -859 951 -1 1809
608 2023 1436 42 163 54 267 47 434 -9 212 -52 379 -145 565 -235 471 -723
792 -1320 869 -112 15 -355 19 -467 9z m529 -1115 c59 -18 111 -74 126 -136
36 -152 -102 -306 -275 -305 -172 0 -266 161 -180 309 68 115 203 169 329 132z
m-862 -283 c110 -23 194 -69 274 -149 81 -82 118 -150 141 -265 46 -222 -77
-481 -297 -631 -126 -86 -247 -127 -400 -136 -294 -18 -540 153 -596 414 -17
85 -17 130 1 217 50 237 249 447 501 529 116 38 260 46 376 21z"/>
</g>
</svg>
